<svg xmlns="http://www.w3.org/2000/svg" width="1080" height="1080" viewBox="0 0 1080 1080">
  <g>
    <path d="M484.532,832.791c-8.768,13.3-17.385,26.287-25.84,39.377-.634.981-.4,2.785-.067,4.074.695,2.658,1.767,5.214,2.626,7.832,3.189,9.725,1.284,18.256-5.18,26.277-2.758,3.422-5.59,7.962-5.751,12.1-.711,18.245-7.125,35.243-10.445,52.891-2.106,11.2-4.153,22.4-6.255,33.6-.3,1.579-.759,3.127-1.128,4.621-10.116-.588-15.043-5.682-15.181-15.335-.2-14.371-2.556-16.318-16.489-20.034-7.829-2.089-15.01-6.678-22.366-10.371-.86-.432-1.544-2.431-1.359-3.546,2.776-16.732-1.47-32.364-6.581-48.082q-48.237-148.33-96.043-296.8c-2.254-6.984-3.926-14.169-5.561-21.331-.533-2.332-.084-4.887-.084-8.475l27.457,12.36c.223-1.9.5-3.233.514-4.57a106.392,106.392,0,0,0-.059-11.576c-1.543-16.057,3.03-31.277,6-46.736,1.281-6.665,1.607-13.526,3.089-20.136,1.9-8.478,5.993-15.731,13.86-20.365,5.63-3.316,7.949-8.207,6.95-14.893-1.259-8.434,2.853-15.513,8.464-20.7,9.725-8.991,7.356-20.074,7.131-30.886-.029-1.406-2.207-3.329-3.818-4.046-9.032-4.014-12.835-11.191-12.888-20.639-.089-15.808-.107-31.619.136-47.424.031-2.029,1.461-4.319,2.854-5.972a24.443,24.443,0,0,1,6.28-5.332c7.074-4.1,8.622-10.373,7.638-17.813-.6-4.549-.684-9.263-1.984-13.608-9.04-30.215-3.192-58.6,8.657-86.922,14.029-33.54,26.695-67.652,39.852-101.555,1.991-5.131,3.217-10.559,5.226-15.682a24.855,24.855,0,0,1,4.948-8.421c6.217-6.266,14.2-4.9,17.729,2.786,2.373,5.168,4.595,10.422,6.547,15.761,2.72,7.436,7.649,12.579,15.189,14.779a88.383,88.383,0,0,0,15.611,3.178c7.184.737,10.824-2.04,12.877-9.029,1.718-5.849,5.733-9.577,10.6-12.872,6.48-4.389,12.661-9.217,19.04-13.76q12.492-8.9,25.105-17.628a16.338,16.338,0,0,1,15.3-2.129c19.449,7.188,38.957,14.276,58.067,22.3,11.765,4.94,18.484,15.6,19.67,27.613,2.838,28.733,12.94,55.322,21.782,82.329,7.31,22.329,14.733,44.625,22.445,66.818,3.282,9.447,6.433,18.768,5.353,28.978a6.1,6.1,0,0,0,.846,3.613c7.064,11.288,9.711,24.1,13.072,36.712,2.312,8.676,5.578,17.1,7.915,25.767,1.117,4.146,1.066,8.607,1.607,13.484,1.642.077,3.614.249,5.586.249,13.048,0,26.1-.067,39.143-.066,11.608,0,15.961,3.691,17.813,15.057,2.159,13.242,4.076,26.528,6.571,39.706a20.125,20.125,0,0,0,4.77,9.394c7.19,7.813,14.871,15.172,22.548,22.895l11.753-8.943-6.349-7.961c8.048,0,15.084-.149,22.1.138,1.248.051,2.615,1.753,3.6,2.961,7.388,9.082,14.831,18.126,21.955,27.414,2.651,3.456,4.46,7.553,6.716,11.32,2.623,4.382,5.76,8.529,7.789,13.166,1,2.282,1.138,6.711-.285,7.983-7.535,6.737-11.633,15.223-13.516,24.731-2.2,11.108-8.412,17.836-18.576,22.776-7.759,3.77-14.774,9.612-21.158,15.564-14.243,13.278-27.59,27.518-41.884,40.738-8.3,7.678-17.728,14.138-27.229,21.6-2.7-4.08-4.8-7.221-6.86-10.391a16.378,16.378,0,0,0-27.043-.856,20.5,20.5,0,0,0-3.554,6.778c-.917,3.343-2.782,4.678-5.961,4.011-9.746-2.044-15.591,2.153-18.6,11.23a29.8,29.8,0,0,1-1.824,3.394c-3.733,7.662-10.781,14.947-1.373,24.327-10.981,1.315-20.6,2.586-30.248,3.486a5.332,5.332,0,0,1-4.28-2.429c-2.3-5.131-4.168-10.462-5.991-15.789a36.043,36.043,0,0,1-1-5.941c-12.035-1.213-19.573,5.493-27.041,13.827,12.668,9.1,12.536,19.887,5.71,32.839-2.645,5.018-1.729,12.174-1.587,18.337.186,8.062,1.795,16.108,1.751,24.155-.081,14.752-7.633,22.692-22.343,24.341-5.246.587-10.548.68-15.994,1.009-.857,6.215-.817,12.48-2.751,18.061-1.838,5.3-4.6,11.659-8.942,14.466-15.06,9.73-30.986,18.121-46.589,27.01-3.356,1.911-6.06,1.1-8.817-1.566C492.483,839.087,488.642,836.224,484.532,832.791Z" fill="#008ad6"/>
    <path d="M468.151,823.586c-8.768,13.3-17.385,26.287-25.84,39.377-.634.981-.4,2.785-.067,4.074.695,2.658,1.767,5.214,2.625,7.832,3.19,9.725,1.285,18.256-5.179,26.277-2.758,3.422-5.59,7.962-5.751,12.1-.711,18.245-7.125,35.243-10.445,52.891-2.107,11.2-4.153,22.4-6.256,33.6-.3,1.579-.759,3.127-1.127,4.621-10.117-.588-15.043-5.682-15.181-15.335-.2-14.371-2.556-16.318-16.49-20.034-7.828-2.089-15.009-6.678-22.366-10.371-.859-.432-1.543-2.431-1.358-3.546,2.776-16.732-1.47-32.364-6.582-48.082q-48.237-148.331-96.043-296.8c-2.253-6.984-3.926-14.169-5.561-21.331-.532-2.332-.083-4.887-.083-8.475l27.457,12.36c.223-1.9.5-3.233.514-4.57a106.139,106.139,0,0,0-.06-11.576c-1.542-16.057,3.03-31.277,6-46.736,1.281-6.665,1.607-13.526,3.09-20.136,1.9-8.478,5.992-15.731,13.86-20.365,5.63-3.316,7.948-8.207,6.95-14.893-1.259-8.434,2.852-15.513,8.463-20.7,9.726-8.991,7.357-20.074,7.131-30.886-.029-1.406-2.206-3.329-3.818-4.046C313,414.817,309.2,407.64,309.148,398.192c-.089-15.808-.108-31.619.136-47.424.031-2.029,1.461-4.319,2.854-5.972a24.426,24.426,0,0,1,6.28-5.332c7.074-4.1,8.622-10.373,7.638-17.813-.6-4.549-.684-9.263-1.984-13.608-9.041-30.215-3.192-58.6,8.656-86.922,14.03-33.54,26.7-67.652,39.853-101.555,1.991-5.131,3.217-10.559,5.226-15.682a24.853,24.853,0,0,1,4.947-8.421c6.218-6.266,14.2-4.9,17.73,2.786,2.373,5.168,4.6,10.422,6.547,15.761,2.719,7.436,7.649,12.579,15.189,14.779a88.383,88.383,0,0,0,15.611,3.178c7.183.737,10.824-2.04,12.877-9.029,1.717-5.849,5.732-9.577,10.6-12.872,6.48-4.389,12.661-9.217,19.039-13.76q12.493-8.9,25.1-17.628a16.338,16.338,0,0,1,15.3-2.129c19.449,7.188,38.958,14.276,58.068,22.3,11.764,4.94,18.484,15.6,19.67,27.613,2.837,28.733,12.94,55.322,21.781,82.329,7.311,22.329,14.733,44.625,22.445,66.818,3.283,9.447,6.434,18.768,5.354,28.978a6.1,6.1,0,0,0,.846,3.613c7.064,11.288,9.711,24.1,13.072,36.712,2.311,8.676,5.578,17.1,7.914,25.767,1.118,4.146,1.067,8.607,1.607,13.484,1.643.077,3.615.249,5.587.249,13.047,0,26.1-.067,39.142-.066,11.608,0,15.961,3.691,17.814,15.057,2.158,13.242,4.076,26.528,6.571,39.706a20.125,20.125,0,0,0,4.77,9.394c7.189,7.813,14.871,15.172,22.548,22.895l11.753-8.943-6.349-7.961c8.048,0,15.084-.149,22.1.138,1.247.051,2.615,1.753,3.6,2.961,7.389,9.082,14.832,18.126,21.956,27.414,2.651,3.456,4.46,7.553,6.715,11.32,2.624,4.382,5.761,8.529,7.789,13.166,1,2.282,1.139,6.711-.284,7.983-7.536,6.737-11.633,15.223-13.517,24.731-2.2,11.108-8.412,17.836-18.575,22.776-7.759,3.77-14.774,9.612-21.159,15.564-14.242,13.278-27.59,27.518-41.883,40.738-8.3,7.678-17.728,14.138-27.229,21.6-2.7-4.08-4.8-7.221-6.86-10.391a16.378,16.378,0,0,0-27.043-.856,20.5,20.5,0,0,0-3.554,6.778c-.917,3.343-2.783,4.678-5.961,4.011-9.746-2.044-15.591,2.153-18.6,11.23a29.651,29.651,0,0,1-1.825,3.394c-3.732,7.662-10.78,14.947-1.372,24.327-10.982,1.315-20.6,2.586-30.248,3.486a5.333,5.333,0,0,1-4.281-2.429c-2.3-5.131-4.168-10.462-5.991-15.789a36.255,36.255,0,0,1-1-5.941c-12.034-1.213-19.572,5.493-27.04,13.827,12.668,9.1,12.536,19.887,5.71,32.839-2.645,5.018-1.729,12.174-1.587,18.337.185,8.062,1.795,16.108,1.751,24.155-.082,14.752-7.633,22.692-22.343,24.341-5.247.587-10.548.68-15.994,1.009-.857,6.215-.818,12.48-2.752,18.061-1.837,5.3-4.595,11.659-8.941,14.466-15.061,9.73-30.986,18.121-46.589,27.01-3.356,1.911-6.06,1.1-8.818-1.566C476.1,829.882,472.261,827.019,468.151,823.586Z" fill="#ff3939"/>
    <path d="M455.808,812.534c-8.767,13.3-17.384,26.287-25.84,39.377-.634.981-.4,2.785-.067,4.074.7,2.657,1.767,5.214,2.626,7.831,3.19,9.726,1.284,18.257-5.18,26.278-2.757,3.422-5.59,7.962-5.751,12.1-.71,18.244-7.125,35.243-10.445,52.89-2.106,11.2-4.153,22.4-6.255,33.6-.3,1.579-.759,3.127-1.128,4.62-10.116-.587-15.043-5.681-15.18-15.334-.205-14.371-2.556-16.318-16.49-20.035-7.829-2.088-15.009-6.677-22.366-10.37-.86-.432-1.543-2.432-1.358-3.547,2.775-16.731-1.471-32.363-6.582-48.081q-48.237-148.332-96.043-296.8c-2.254-6.984-3.926-14.17-5.561-21.332-.532-2.331-.084-4.886-.084-8.474l27.458,12.36c.222-1.9.5-3.233.513-4.57a106.139,106.139,0,0,0-.059-11.576c-1.543-16.057,3.03-31.277,6-46.736,1.281-6.665,1.607-13.527,3.09-20.137,1.9-8.477,5.992-15.731,13.859-20.364,5.63-3.317,7.949-8.207,6.951-14.893-1.26-8.434,2.852-15.513,8.463-20.7,9.725-8.992,7.356-20.074,7.131-30.886-.029-1.406-2.206-3.33-3.818-4.046-9.032-4.015-12.835-11.192-12.888-20.639-.088-15.808-.107-31.619.136-47.424.031-2.029,1.461-4.319,2.855-5.972a24.4,24.4,0,0,1,6.279-5.332c7.075-4.1,8.623-10.373,7.638-17.813-.6-4.549-.683-9.263-1.983-13.608-9.041-30.215-3.193-58.6,8.656-86.922,14.029-33.54,26.695-67.652,39.852-101.555,1.991-5.131,3.217-10.56,5.226-15.682a24.871,24.871,0,0,1,4.948-8.421c6.217-6.266,14.2-4.9,17.73,2.786,2.372,5.168,4.594,10.422,6.547,15.761,2.719,7.436,7.648,12.579,15.188,14.778a88.307,88.307,0,0,0,15.612,3.179c7.183.736,10.823-2.04,12.876-9.03,1.718-5.848,5.733-9.576,10.6-12.872,6.48-4.389,12.662-9.216,19.04-13.759q12.492-8.9,25.105-17.628a16.338,16.338,0,0,1,15.3-2.13c19.449,7.189,38.958,14.276,58.067,22.3,11.765,4.94,18.484,15.6,19.671,27.612,2.837,28.734,12.939,55.323,21.781,82.329,7.31,22.33,14.733,44.626,22.445,66.818,3.283,9.448,6.433,18.769,5.353,28.979a6.106,6.106,0,0,0,.847,3.613c7.063,11.288,9.711,24.1,13.071,36.712,2.312,8.675,5.578,17.1,7.915,25.766,1.117,4.146,1.067,8.608,1.607,13.485,1.642.077,3.614.249,5.587.248,13.047,0,26.1-.066,39.142-.065,11.608,0,15.961,3.691,17.814,15.057,2.158,13.242,4.076,26.528,6.57,39.706a20.139,20.139,0,0,0,4.77,9.394c7.19,7.812,14.871,15.172,22.549,22.894l11.752-8.942L761,443.44c8.047,0,15.083-.148,22.1.139,1.248.051,2.615,1.752,3.6,2.96,7.389,9.082,14.832,18.127,21.956,27.415,2.65,3.456,4.46,7.552,6.715,11.32,2.624,4.382,5.76,8.529,7.789,13.166,1,2.281,1.139,6.711-.285,7.983-7.535,6.737-11.633,15.223-13.516,24.731-2.2,11.108-8.412,17.836-18.576,22.775-7.759,3.771-14.773,9.613-21.158,15.565-14.243,13.277-27.59,27.518-41.883,40.738-8.3,7.678-17.728,14.138-27.229,21.6-2.7-4.079-4.8-7.22-6.86-10.39a16.379,16.379,0,0,0-27.044-.856,20.5,20.5,0,0,0-3.554,6.778c-.916,3.343-2.782,4.678-5.961,4.011-9.745-2.044-15.591,2.153-18.6,11.23A29.642,29.642,0,0,1,636.672,646c-3.733,7.662-10.78,14.947-1.372,24.327-10.982,1.314-20.6,2.586-30.248,3.485a5.33,5.33,0,0,1-4.281-2.428c-2.295-5.132-4.168-10.462-5.991-15.79a36.031,36.031,0,0,1-1-5.94c-12.035-1.214-19.573,5.492-27.041,13.827,12.668,9.1,12.536,19.887,5.71,32.839-2.645,5.018-1.729,12.174-1.587,18.336.186,8.063,1.8,16.109,1.751,24.156-.081,14.752-7.632,22.692-22.343,24.34-5.246.588-10.548.681-15.994,1.01-.857,6.215-.817,12.48-2.751,18.06-1.838,5.3-4.6,11.66-8.941,14.467-15.061,9.73-30.986,18.121-46.59,27.009-3.356,1.912-6.06,1.105-8.817-1.565C463.759,818.829,459.918,815.967,455.808,812.534Z" fill="#faad17"/>
    <path d="M251.759,560.362a106.157,106.157,0,0,0-.059-11.577c-1.542-16.057,3.03-31.277,6-46.736,1.281-6.665,1.607-13.526,3.09-20.136,1.9-8.478,5.992-15.731,13.859-20.365,5.63-3.316,7.949-8.207,6.951-14.893-1.26-8.433,2.852-15.512,8.463-20.7,9.726-8.991,7.356-20.074,7.131-30.886-.029-1.405-2.206-3.329-3.818-4.046-9.032-4.014-12.835-11.191-12.888-20.638-.088-15.809-.107-31.62.136-47.425.031-2.029,1.461-4.319,2.855-5.972a24.422,24.422,0,0,1,6.279-5.332c7.075-4.1,8.623-10.373,7.638-17.812-.6-4.55-.683-9.264-1.983-13.609-9.041-30.215-3.193-58.6,8.656-86.922,14.029-33.54,26.695-67.652,39.852-101.555,1.991-5.13,3.217-10.559,5.226-15.682a24.881,24.881,0,0,1,4.948-8.421c6.217-6.265,14.2-4.9,17.73,2.787,2.372,5.167,4.594,10.421,6.547,15.76,2.719,7.436,7.648,12.579,15.188,14.779a88.215,88.215,0,0,0,15.612,3.178c7.183.737,10.823-2.04,12.876-9.029,1.718-5.848,5.733-9.576,10.6-12.872,6.48-4.389,12.662-9.217,19.04-13.76q12.492-8.9,25.1-17.628a16.338,16.338,0,0,1,15.3-2.129c19.449,7.188,38.958,14.276,58.067,22.3,11.765,4.939,18.484,15.6,19.671,27.612,2.837,28.733,12.939,55.323,21.781,82.329,7.31,22.329,14.733,44.625,22.445,66.818,3.283,9.447,6.433,18.768,5.353,28.978a6.1,6.1,0,0,0,.847,3.613c7.063,11.288,9.711,24.1,13.071,36.712,2.312,8.676,5.578,17.1,7.915,25.767,1.117,4.146,1.067,8.607,1.607,13.484,1.642.077,3.614.249,5.587.249,13.047,0,26.1-.067,39.142-.065,11.608,0,15.961,3.69,17.814,15.056,2.158,13.242,4.076,26.529,6.57,39.706a20.143,20.143,0,0,0,4.77,9.395c7.19,7.812,14.871,15.171,22.549,22.894l11.752-8.943-6.348-7.961c8.047,0,15.083-.149,22.1.138,1.247.051,2.614,1.753,3.6,2.961,7.389,9.082,14.832,18.126,21.956,27.414,2.65,3.457,4.46,7.553,6.715,11.32,2.624,4.383,5.76,8.529,7.789,13.166,1,2.282,1.139,6.711-.285,7.984-7.535,6.736-11.633,15.222-13.516,24.73-2.2,11.108-8.412,17.837-18.576,22.776-7.759,3.77-14.773,9.612-21.158,15.564-14.243,13.278-27.59,27.519-41.883,40.738-8.3,7.678-17.728,14.139-27.229,21.6-2.7-4.08-4.8-7.221-6.86-10.391a16.379,16.379,0,0,0-27.044-.856,20.5,20.5,0,0,0-3.554,6.778c-.916,3.343-2.782,4.678-5.961,4.012-9.745-2.045-15.591,2.152-18.6,11.23a29.713,29.713,0,0,1-1.824,3.393c-3.732,7.662-10.78,14.947-1.372,24.328-10.982,1.314-20.6,2.585-30.248,3.485a5.333,5.333,0,0,1-4.281-2.429c-2.3-5.131-4.168-10.462-5.991-15.789a36.131,36.131,0,0,1-1.005-5.941c-12.035-1.213-19.573,5.493-27.041,13.827,12.669,9.105,12.536,19.887,5.71,32.839-2.644,5.018-1.729,12.174-1.587,18.337.186,8.062,1.795,16.108,1.751,24.156-.081,14.751-7.632,22.691-22.343,24.34-5.246.588-10.548.68-15.993,1.009-.858,6.215-.818,12.48-2.752,18.061-1.838,5.3-4.6,11.659-8.941,14.466-15.061,9.73-30.986,18.121-46.59,27.01-3.356,1.912-6.06,1.1-8.817-1.565-3.413-3.305-7.254-6.168-11.364-9.6-8.767,13.3-17.384,26.286-25.84,39.376-.634.981-.4,2.786-.067,4.074.7,2.658,1.767,5.214,2.626,7.832,3.19,9.725,1.284,18.256-5.18,26.277-2.757,3.422-5.59,7.962-5.751,12.1-.71,18.245-7.125,35.243-10.445,52.891-2.106,11.2-4.153,22.4-6.255,33.6-.3,1.579-.759,3.126-1.128,4.62-10.116-.588-15.043-5.682-15.18-15.335-.2-14.37-2.556-16.317-16.49-20.034-7.829-2.088-15.009-6.677-22.366-10.371-.86-.432-1.543-2.431-1.358-3.546,2.775-16.732-1.471-32.364-6.582-48.082q-48.237-148.33-96.043-296.8c-2.254-6.985-3.926-14.17-5.561-21.332-.532-2.331-.084-4.887-.084-8.475,9.675,4.356,18.274,8.227,27.458,12.36.222-1.9.5-3.233.513-4.569" fill="none" stroke="#fff" stroke-miterlimit="10" stroke-width="12.447"/>
  </g>
</svg>
